<region> region_label=01 lokey=021 hikey=024 pitch_keycenter=023 ampeg_release=0.6 sample=Mf B-1.$EXT
<region> region_label=02 lokey=025 hikey=027 pitch_keycenter=027 ampeg_release=0.5 sample=Mf D#0.$EXT
<region> region_label=03 lokey=028 hikey=030 pitch_keycenter=029 ampeg_release=0.4 sample=Mf F0.$EXT
<region> region_label=04 lokey=031 hikey=032 pitch_keycenter=031 ampeg_release=0.3 sample=Mf G0.$EXT
<region> region_label=05 lokey=033 hikey=034 pitch_keycenter=033 ampeg_release=0.2 sample=Mf A0.$EXT
<region> region_label=06 lokey=035 hikey=035 pitch_keycenter=035 ampeg_release=0.1 sample=Mf B0.$EXT
<region> region_label=07 lokey=036 hikey=037 pitch_keycenter=037 sample=MF C#1.$EXT
<region> region_label=08 lokey=038 hikey=039 pitch_keycenter=038 sample=MF D1.$EXT
<region> region_label=09 lokey=040 hikey=040 pitch_keycenter=040 sample=MF E1.$EXT
<region> region_label=10 lokey=041 hikey=041 pitch_keycenter=041 sample=MF F1.$EXT
<region> region_label=11 lokey=042 hikey=044 pitch_keycenter=043 sample=MF G1.$EXT
<region> region_label=12 lokey=045 hikey=046 pitch_keycenter=045 sample=MF A1.$EXT
<region> region_label=13 lokey=047 hikey=047 pitch_keycenter=047 sample=MF B1.$EXT
<region> region_label=14 lokey=048 hikey=049 pitch_keycenter=048 sample=MF C2.$EXT
<region> region_label=15 lokey=050 hikey=050 pitch_keycenter=050 sample=MF D2.$EXT
<region> region_label=16 lokey=051 hikey=052 pitch_keycenter=052 sample=MF E2.$EXT
<region> region_label=17 lokey=053 hikey=054 pitch_keycenter=053 sample=MF F2.$EXT
<region> region_label=18 lokey=055 hikey=055 pitch_keycenter=055 sample=MF G2.$EXT
<region> region_label=19 lokey=056 hikey=056 pitch_keycenter=056 sample=MF G#2.$EXT
<region> region_label=20 lokey=057 hikey=057 pitch_keycenter=057 sample=MF A2.$EXT
<region> region_label=21 lokey=058 hikey=058 pitch_keycenter=058 sample=MF A#2.$EXT
<region> region_label=22 lokey=059 hikey=059 pitch_keycenter=059 sample=MF B2.$EXT
<region> region_label=23 lokey=060 hikey=061 pitch_keycenter=060 sample=MF C3.$EXT
<region> region_label=24 lokey=062 hikey=063 pitch_keycenter=062 sample=MF D3.$EXT
<region> region_label=25 lokey=064 hikey=064 pitch_keycenter=064 sample=MF E3.$EXT
<region> region_label=26 lokey=065 hikey=066 pitch_keycenter=065 sample=MF F3.$EXT
<region> region_label=27 lokey=067 hikey=068 pitch_keycenter=067 sample=MF G3.$EXT
<region> region_label=28 lokey=069 hikey=069 pitch_keycenter=069 sample=MF A3.$EXT
<region> region_label=29 lokey=070 hikey=071 pitch_keycenter=071 sample=MF B3.$EXT
<region> region_label=30 lokey=072 hikey=073 pitch_keycenter=072 sample=MF C4.$EXT
<region> region_label=31 lokey=074 hikey=075 pitch_keycenter=074 sample=Mf D4.$EXT
<region> region_label=32 lokey=076 hikey=076 pitch_keycenter=076 sample=Mf E4.$EXT
<region> region_label=33 lokey=077 hikey=078 pitch_keycenter=077 sample=Mf F4.$EXT
<region> region_label=34 lokey=079 hikey=079 pitch_keycenter=079 sample=Mf G4.$EXT
<region> region_label=35 lokey=080 hikey=080 pitch_keycenter=080 sample=Mf G#4.$EXT
<region> region_label=36 lokey=081 hikey=081 pitch_keycenter=081 sample=Mf A4.$EXT
<region> region_label=37 lokey=082 hikey=082 pitch_keycenter=082 sample=Mf A#4.$EXT
<region> region_label=38 lokey=083 hikey=083 pitch_keycenter=083 sample=Mf B4.$EXT
<region> region_label=39 lokey=084 hikey=085 pitch_keycenter=085 ampeg_release=0.1 sample=Mf C#5.$EXT
<region> region_label=40 lokey=086 hikey=086 pitch_keycenter=086 ampeg_release=0.2 sample=Mf D5.$EXT
<region> region_label=41 lokey=087 hikey=087 pitch_keycenter=087 ampeg_release=0.3 sample=Mf D#5.$EXT
<region> region_label=42 lokey=088 hikey=088 pitch_keycenter=088 ampeg_release=0.4 sample=Mf E5.$EXT
<region> region_label=43 lokey=089 hikey=089 pitch_keycenter=089 ampeg_release=0.5 sample=Mf F5.$EXT
<region> region_label=44 lokey=090 hikey=090 pitch_keycenter=090 ampeg_release=0.6 sample=Mf F#5.$EXT
<region> region_label=45 lokey=091 hikey=091 pitch_keycenter=091 ampeg_release=10 sample=Mf G5.$EXT
<region> region_label=46 lokey=092 hikey=092 pitch_keycenter=092 ampeg_release=10 sample=Mf G#5.$EXT
<region> region_label=47 lokey=093 hikey=093 pitch_keycenter=093 ampeg_release=10 sample=Mf A5.$EXT
<region> region_label=48 lokey=094 hikey=094 pitch_keycenter=094 ampeg_release=10 sample=Mf A#5.$EXT
<region> region_label=49 lokey=095 hikey=095 pitch_keycenter=095 ampeg_release=10 sample=Mf B5.$EXT
<region> region_label=50 lokey=096 hikey=096 pitch_keycenter=096 ampeg_release=10 sample=Mf C6.$EXT
<region> region_label=51 lokey=097 hikey=097 pitch_keycenter=097 ampeg_release=10 sample=Mf C#6.$EXT
<region> region_label=52 lokey=098 hikey=098 pitch_keycenter=098 ampeg_release=10 sample=Mf D6.$EXT
<region> region_label=53 lokey=099 hikey=099 pitch_keycenter=099 ampeg_release=10 sample=Mf D#6.$EXT
<region> region_label=54 lokey=100 hikey=100 pitch_keycenter=100 ampeg_release=10 sample=Mf E6.$EXT
<region> region_label=55 lokey=101 hikey=101 pitch_keycenter=101 ampeg_release=10 sample=Mf F6.$EXT
<region> region_label=56 lokey=102 hikey=102 pitch_keycenter=102 ampeg_release=10 sample=Mf F#6.$EXT
<region> region_label=57 lokey=103 hikey=103 pitch_keycenter=103 ampeg_release=10 sample=Mf G6.$EXT
<region> region_label=58 lokey=104 hikey=104 pitch_keycenter=104 ampeg_release=10 sample=Mf G#6.$EXT
<region> region_label=59 lokey=105 hikey=105 pitch_keycenter=105 ampeg_release=10 sample=Mf A6.$EXT
<region> region_label=60 lokey=106 hikey=106 pitch_keycenter=106 ampeg_release=10 sample=Mf A#6.$EXT
<region> region_label=61 lokey=107 hikey=107 pitch_keycenter=107 ampeg_release=10 sample=Mf B6.$EXT
<region> region_label=62 lokey=108 hikey=108 pitch_keycenter=108 ampeg_release=10 sample=Mf C7.$EXT
